# xmcd CD database file
# Copyright (C) 1995-1998 Ti Kan
#
# Track frame offsets:
#	150
#	15987
#	32570
#	51517
#	67077
#	81685
#	95075
#	110915
#	124755
#	140070
#
# Disc length: 2083 seconds
#
# Revision: 1
# Processed by: cddbd v1.4b41PL1 Copyright (c) Steve Scherf et al.
# Submitted via: CDex 1.30Release
#
DISCID=9808210a
DTITLE=Joe Diffie - A Night To Remember
DYEAR=1999
DGENRE=Country
TTITLE0=A Night To Remember
TTITLE1=You Can't Go Home
TTITLE2=I'm The Only Thing I'll Hold Against You
TTITLE3=The Quittin' Kind
TTITLE4=Better Off Gone
TTITLE5=It's Always Somethin'
TTITLE6=Are We Even Yet
TTITLE7=My Heart's In Over My Head
TTITLE8=Not In This Lifetime
TTITLE9=Don't Our Love Look Natural
EXTD=YEAR: 1999 ID3G:   2
EXTT0=
EXTT1=
EXTT2=
EXTT3=
EXTT4=
EXTT5=
EXTT6=
EXTT7=
EXTT8=
EXTT9=
PLAYORDER=
